<svg xmlns="http://www.w3.org/2000/svg" x="0px" y="0px" width="100" height="100" viewBox="0,0,256,256">
<g fill="#ffffff" fill-rule="nonzero" stroke="none" stroke-width="1" stroke-linecap="butt" stroke-linejoin="miter" stroke-miterlimit="10" stroke-dasharray="" stroke-dashoffset="0" font-family="none" font-weight="none" font-size="none" text-anchor="none" style="mix-blend-mode: normal"><g transform="scale(10.66667,10.66667)"><path d="M14.05469,0.00195c-0.13625,-0.0075 -0.2743,0.01359 -0.4043,0.05859l-7.59961,2.84961l0.43945,0.2207l2,1l1.54883,0.7793l5.30078,-2.12109l1.88086,-0.75977l0.59961,-0.24023l-3.37109,-1.67969c-0.125,-0.065 -0.25828,-0.09992 -0.39453,-0.10742zM19,3.32031v2.28906l0.16016,-0.04883l1.58008,-0.53125l1.34961,-0.44922l-2.90039,-1.17969zM17,4.2793l-6,2.40039v3.32031c0,0.07 -0.00953,0.13922 -0.01953,0.19922c-0.01,0.06 -0.03055,0.12164 -0.06055,0.18164c-0.1,0.24 -0.2893,0.43906 -0.5293,0.53906l-0.00977,0.00977l-3.38086,1.37109v6.75l2,-0.75v-4.30078c0,-0.42 0.26039,-0.78945 0.65039,-0.93945l7.34961,-2.75977zM5,4.61914v2.69141l-3,1.11914l0.65039,0.33984l1.74023,0.90039l1.66016,0.85938l2.94922,-1.20898v-2.70117zM23,6.39063l-2,0.66992l-2,0.66016v3.2793c0,0.08 -0.0093,0.16047 -0.0293,0.23047c-0.02,0.07 -0.05008,0.14898 -0.08008,0.20898c-0.04,0.09 -0.09016,0.17023 -0.16016,0.24024c-0.03,0.03 -0.07133,0.06961 -0.11133,0.09961c-0.07,0.06 -0.14852,0.11063 -0.22852,0.14063c-0.01,0.01 -0.03102,0.00953 -0.04102,0.01953l-7.34961,2.75v9.31055l7.34961,-3.06055c0.39,-0.15 0.65039,-0.51945 0.65039,-0.93945v-3.80078l3.34961,-1.25977c0.39,-0.15 0.65039,-0.51945 0.65039,-0.93945zM13,7c0.55,0 1,0.45 1,1c0,0.55 -0.45,1 -1,1c-0.55,0 -1,-0.45 -1,-1c0,-0.55 0.45,-1 1,-1zM1,10.16016v7.33984v0.5c0,0.38 0.21078,0.72062 0.55078,0.89063l2.51953,1.25977l0.19922,-0.07031l0.73047,-0.2793v-7.57031l-2,-1.03125l-1.89062,-0.97852zM16,18c0.55,0 1,0.45 1,1c0,0.12 -0.02055,0.23008 -0.06055,0.33008c-0.13,0.39 -0.50945,0.66992 -0.93945,0.66992c-0.18,0 -0.35023,-0.05086 -0.49023,-0.13086c-0.3,-0.17 -0.50977,-0.49914 -0.50977,-0.86914c0,-0.55 0.45,-1 1,-1zM9,20.44922l-1.07031,0.40039l-1.81055,0.67969l-0.70898,0.25977c0.04,0.05 0.09063,0.08156 0.14063,0.10156l3.4707,2.10938z"></path></g></g>
</svg>